{
    "asset" : {
        "generator" : "Khronos glTF Blender I/O v3.3.32",
        "version" : "2.0"
    },
    "extensionsUsed" : [
        "KHR_materials_specular",
        "KHR_materials_ior"
    ],
    "scene" : 0,
    "scenes" : [
        {
            "name" : "Scene",
            "nodes" : [
                0
            ]
        }
    ],
    "nodes" : [
        {
            "mesh" : 0,
            "name" : "uploads_files_3448446_Hoodie_MD",
            "rotation" : [
                0.7071068286895752,
                0,
                0,
                0.7071067094802856
            ],
            "scale" : [
                192.07696533203125,
                192.07691955566406,
                192.07691955566406
            ],
            "translation" : [
                -0.1260838508605957,
                0.1176605224609375,
                9.992419242858887
            ]
        }
    ],
    "materials" : [
        {
            "doubleSided" : true,
            "extensions" : {
                "KHR_materials_specular" : {
                    "specularColorFactor" : [
                        0,
                        0,
                        0
                    ]
                },
                "KHR_materials_ior" : {
                    "ior" : 1.4500000476837158
                }
            },
            "name" : "FABRIC_1_FRONT_2212.001",
            "pbrMetallicRoughness" : {
                "metallicFactor" : 0
            }
        }
    ],
    "meshes" : [
        {
            "name" : "uploads_files_3448446_Hoodie_MD.001",
            "primitives" : [
                {
                    "attributes" : {
                        "POSITION" : 0,
                        "NORMAL" : 1,
                        "TEXCOORD_0" : 2
                    },
                    "indices" : 3,
                    "material" : 0
                }
            ]
        }
    ],
    "accessors" : [
        {
            "bufferView" : 0,
            "componentType" : 5126,
            "count" : 12323,
            "max" : [
                0.4228309988975525,
                0.09572187811136246,
                -0.03507030010223389
            ],
            "min" : [
                -0.3945389986038208,
                -0.24233713746070862,
                -0.6822593212127686
            ],
            "type" : "VEC3"
        },
        {
            "bufferView" : 1,
            "componentType" : 5126,
            "count" : 12323,
            "type" : "VEC3"
        },
        {
            "bufferView" : 2,
            "componentType" : 5126,
            "count" : 12323,
            "type" : "VEC2"
        },
        {
            "bufferView" : 3,
            "componentType" : 5123,
            "count" : 69066,
            "type" : "SCALAR"
        }
    ],
    "bufferViews" : [
        {
            "buffer" : 0,
            "byteLength" : 147876,
            "byteOffset" : 0,
            "target" : 34962
        },
        {
            "buffer" : 0,
            "byteLength" : 147876,
            "byteOffset" : 147876,
            "target" : 34962
        },
        {
            "buffer" : 0,
            "byteLength" : 98584,
            "byteOffset" : 295752,
            "target" : 34962
        },
        {
            "buffer" : 0,
            "byteLength" : 138132,
            "byteOffset" : 394336,
            "target" : 34963
        }
    ],
    "buffers" : [
        {
            "byteLength" : 532468,
            "uri" : "data:application/octet-stream;base64,"
        }
    ]
}
