{
    "asset" : {
        "generator" : "Khronos glTF Blender I/O v3.3.32",
        "version" : "2.0"
    },
    "scene" : 0,
    "scenes" : [
        {
            "name" : "Scene",
            "nodes" : [
                0
            ]
        }
    ],
    "nodes" : [
        {
            "mesh" : 0,
            "name" : "Tshirt_obj",
            "rotation" : [
                0.7071068286895752,
                0,
                0,
                0.7071067094802856
            ]
        }
    ],
    "meshes" : [
        {
            "name" : "Tshirt_obj",
            "primitives" : [
                {
                    "attributes" : {
                        "POSITION" : 0,
                        "NORMAL" : 1,
                        "TEXCOORD_0" : 2
                    },
                    "indices" : 3
                }
            ]
        }
    ],
    "accessors" : [
        {
            "bufferView" : 0,
            "componentType" : 5126,
            "count" : 10127,
            "max" : [
                52.536800384521484,
                26.929000854492188,
                -13.9621000289917
            ],
            "min" : [
                -52.536800384521484,
                -26.929000854492188,
                -126.91799926757812
            ],
            "type" : "VEC3"
        },
        {
            "bufferView" : 1,
            "componentType" : 5126,
            "count" : 10127,
            "type" : "VEC3"
        },
        {
            "bufferView" : 2,
            "componentType" : 5126,
            "count" : 10127,
            "type" : "VEC2"
        },
        {
            "bufferView" : 3,
            "componentType" : 5123,
            "count" : 15189,
            "type" : "SCALAR"
        }
    ],
    "bufferViews" : [
        {
            "buffer" : 0,
            "byteLength" : 121524,
            "byteOffset" : 0,
            "target" : 34962
        },
        {
            "buffer" : 0,
            "byteLength" : 121524,
            "byteOffset" : 121524,
            "target" : 34962
        },
        {
            "buffer" : 0,
            "byteLength" : 81016,
            "byteOffset" : 243048,
            "target" : 34962
        },
        {
            "buffer" : 0,
            "byteLength" : 30378,
            "byteOffset" : 324064,
            "target" : 34963
        }
    ],
    "buffers" : [
        {
            "byteLength" : 354444,
            "uri" : "data:application/octet-stream;base64,"
        }
    ]
}
